<svg xmlns="http://www.w3.org/2000/svg" viewBox="0 0 200 200" width="80" height="80">
  <!-- Background circle -->
  <circle cx="100" cy="100" r="95" fill="white" stroke="#2d5016" stroke-width="2"/>
  
  <!-- Leaves - top -->
  <ellipse cx="85" cy="35" rx="8" ry="18" fill="#a4d65e" transform="rotate(-25 85 35)"/>
  <ellipse cx="100" cy="25" rx="8" ry="18" fill="#2d5016" transform="rotate(0 100 25)"/>
  <ellipse cx="115" cy="35" rx="8" ry="18" fill="#6db038" transform="rotate(25 115 35)"/>
  
  <!-- Leaves - middle-top -->
  <ellipse cx="65" cy="55" rx="8" ry="18" fill="#a4d65e" transform="rotate(-45 65 55)"/>
  <ellipse cx="135" cy="55" rx="8" ry="18" fill="#6db038" transform="rotate(45 135 55)"/>
  
  <!-- Leaves - middle -->
  <ellipse cx="50" cy="80" rx="8" ry="18" fill="#2d5016" transform="rotate(-65 50 80)"/>
  <ellipse cx="150" cy="80" rx="8" ry="18" fill="#a4d65e" transform="rotate(65 150 80)"/>
  
  <!-- Leaves - middle-bottom -->
  <ellipse cx="60" cy="125" rx="8" ry="18" fill="#6db038" transform="rotate(-40 60 125)"/>
  <ellipse cx="140" cy="125" rx="8" ry="18" fill="#2d5016" transform="rotate(40 140 125)"/>
  
  <!-- Leaves - bottom -->
  <ellipse cx="80" cy="155" rx="8" ry="18" fill="#a4d65e" transform="rotate(-20 80 155)"/>
  <ellipse cx="120" cy="155" rx="8" ry="18" fill="#6db038" transform="rotate(20 120 155)"/>
  
  <!-- Central figure (stylized person) -->
  <circle cx="100" cy="85" r="12" fill="#2d5016"/>
  <path d="M 100 97 Q 90 115 85 130 M 100 97 Q 110 115 115 130" stroke="#2d5016" stroke-width="3" fill="none" stroke-linecap="round"/>
  <path d="M 85 105 Q 85 120 80 135 M 115 105 Q 115 120 120 135" stroke="#2d5016" stroke-width="3" fill="none" stroke-linecap="round"/>
</svg>